
<svg width="210px" height="85px" viewBox="0 0 210 85" version="1.1" xmlns="http://www.w3.org/2000/svg" xmlns:xlink="http://www.w3.org/1999/xlink">
    <!-- Generator: Sketch 47.1 (45422) - http://www.bohemiancoding.com/sketch -->
    <desc>Created with Sketch.</desc>
    <defs>
        <polygon id="path-1" points="109.318 21.2575 109.318 41.94 0.639 41.94 0.639 0.575 109.318 0.575"></polygon>
    </defs>
    <g id="Page-1" stroke="none" stroke-width="1" fill="none" fill-rule="evenodd">
        <g id="MP-LOGO_grey">
            <polyline id="Fill-1" fill="#FFFFFF" points="0 0.941 19.087 0.941 25.309 25.207 25.433 25.207 31.652 0.941 50.739 0.941 50.739 42.197 38.053 42.197 38.053 15.732 37.933 15.732 30.369 42.197 20.367 42.197 12.807 15.732 12.684 15.732 12.684 42.197 0 42.197 0 0.941"></polyline>
            <polyline id="Fill-2" fill="#FFFFFF" points="52.383 0.941 86.532 0.941 86.532 11.516 65.094 11.516 65.094 16.658 84.567 16.658 84.567 26.48 65.094 26.48 65.094 31.625 87.166 31.625 87.166 42.197 52.383 42.197 52.383 0.941"></polyline>
            <path d="M89.119,42.197 L105.941,42.197 C119.113,42.197 124.244,34.298 124.244,21.643 C124.244,11.243 120.805,0.941 108.217,0.941 L89.119,0.941 L89.119,42.197 Z M100.758,11.516 L104.457,11.516 C112.871,11.516 112.607,18.868 112.607,21.468 C112.607,25.341 112.555,31.625 105.307,31.625 L100.758,31.625 L100.758,11.516 L100.758,11.516 Z" id="Fill-3" fill="#FFFFFF"></path>
            <polygon id="Fill-4" fill="#FFFFFF" points="125.771 42.197 137.816 42.197 137.816 0.941 125.771 0.941"></polygon>
            <path d="M139.631,42.197 L152.4,42.197 L154.248,36.303 L167.365,36.303 L169.096,42.197 L182.271,42.197 L167.248,0.941 L154.826,0.941 L139.631,42.197 Z M157.021,27.463 L161.006,14.75 L161.125,14.75 L164.822,27.463 L157.021,27.463 L157.021,27.463 Z" id="Fill-5" fill="#FFFFFF"></path>
            <path d="M0.057,84.833 L12.77,84.833 L12.77,72.351 L20.279,72.351 C29.756,72.351 36.459,67.671 36.459,57.673 C36.459,51.782 32.531,43.575 21.32,43.575 L0.057,43.575 L0.057,84.833 Z M12.77,54.151 L18.432,54.151 C21.551,54.151 24.441,54.38 24.441,58.142 C24.441,62.3 20.975,62.528 17.682,62.528 L12.77,62.528 L12.77,54.151 L12.77,54.151 Z" id="Fill-6" fill="#FFFFFF"></path>
            <polyline id="Fill-7" fill="#FFFFFF" points="38.167 43.575 50.882 43.575 50.882 74.257 69.137 74.257 69.137 84.833 38.167 84.833 38.167 43.575"></polyline>
            <path d="M59.12,84.833 L71.889,84.833 L73.739,78.94 L86.854,78.94 L88.588,84.833 L101.762,84.833 L86.741,43.575 L74.315,43.575 L59.12,84.833 Z M76.51,70.097 L80.499,57.386 L80.614,57.386 L84.311,70.097 L76.51,70.097 L76.51,70.097 Z" id="Fill-8" fill="#FFFFFF"></path>
            <g id="Group-13" transform="translate(100.000000, 43.000000)">
                <mask id="mask-2" fill="white">
                    <use xlink:href="#path-1"></use>
                </mask>
                <g id="Clip-10"></g>
                <polyline id="Fill-9" fill="#FFFFFF" mask="url(#mask-2)" points="0.639 0.575 13.643 0.575 25.658 22.649 25.775 22.649 25.775 0.575 37.793 0.575 37.793 41.833 25.428 41.833 12.773 19.3 12.662 19.3 12.662 41.833 0.639 41.833 0.639 0.575"></polyline>
                <polyline id="Fill-11" fill="#FFFFFF" mask="url(#mask-2)" points="39.826 0.741 73.977 0.741 73.977 11.317 52.543 11.317 52.543 16.462 72.012 16.462 72.012 26.28 52.543 26.28 52.543 31.423 74.611 31.423 74.611 41.999 39.826 41.999 39.826 0.741"></polyline>
                <polyline id="Fill-12" fill="#FFFFFF" mask="url(#mask-2)" points="85.049 11.318 73.494 11.318 73.494 0.742 109.318 0.742 109.318 11.318 97.76 11.318 97.76 42 85.049 42 85.049 11.318"></polyline>
            </g>
        </g>
    </g>
</svg>